<svg width="188" height="237" viewBox="0 0 188 237" fill="none" xmlns="http://www.w3.org/2000/svg">
<path fill-rule="evenodd" clip-rule="evenodd" d="M22.1694 142.852H165.318V174.89C165.318 174.89 159.65 193.128 151.685 201.815C138.09 216.642 105.247 217.344 95.7038 217.222C93.9324 217.199 92.1821 217.182 90.4107 217.171C81.1163 217.111 49.8525 215.838 36.4843 201.815C28.2671 193.196 22.1694 174.89 22.1694 174.89V142.852ZM70.9078 185.796C75.9901 185.796 80.1102 181.676 80.1102 176.594C80.1102 171.512 75.9901 167.392 70.9078 167.392C65.8254 167.392 61.7054 171.512 61.7054 176.594C61.7054 181.676 65.8254 185.796 70.9078 185.796ZM126.463 176.594C126.463 181.676 122.343 185.796 117.261 185.796C112.178 185.796 108.058 181.676 108.058 176.594C108.058 171.512 112.178 167.392 117.261 167.392C122.343 167.392 126.463 171.512 126.463 176.594ZM61 207C61 207 78.8882 191 93 191C107.112 191 126 207 126 207C123.743 205.866 121.629 204.767 119.622 203.722C100.728 193.894 91.2827 188.98 61 207Z" fill="#00A65A"/>
<path d="M12.2853 173.526V142.852C12.2853 142.852 -0.504308 151.242 0.0154217 159.212C0.494589 166.559 12.2853 173.526 12.2853 173.526Z" fill="#00A65A"/>
<path d="M175.542 173.526V142.852C175.542 142.852 188.332 151.242 187.812 159.212C187.333 166.559 175.542 173.526 175.542 173.526Z" fill="#00A65A"/>
<path d="M65.4547 237V224.049H51.4807C51.4807 224.049 47.9195 225.626 46.3683 227.457C43.8847 230.388 43.9825 237 43.9825 237H65.4547Z" fill="#00A65A"/>
<path d="M119.646 237V224.049H133.62C133.62 224.049 137.182 225.626 138.733 227.457C141.216 230.388 141.119 237 141.119 237H119.646Z" fill="#00A65A"/>
<path fill-rule="evenodd" clip-rule="evenodd" d="M90.6678 37.5155L95.4094 2.94556C95.6652 1.08067 97.3843 -0.223764 99.2492 0.0320248L154.301 7.58296C156.166 7.83875 157.47 9.55789 157.215 11.4228L152.473 45.9927C152.217 47.8576 150.498 49.162 148.633 48.9062L128.698 46.172L118.638 119.521C121.225 122.4 122.576 126.356 122.009 130.492L121.342 135.354H93.3677L94.5511 126.725C95.2585 121.568 98.7635 117.483 103.325 115.79L113.166 44.0415L93.5813 41.3553C91.7164 41.0995 90.412 39.3804 90.6678 37.5155ZM108.943 9.61805L110.969 9.89594C112.834 10.1517 114.138 11.8709 113.882 13.7358L112.956 20.4891C112.7 22.354 110.981 23.6584 109.116 23.4026L107.09 23.1248C105.225 22.869 103.921 21.1498 104.177 19.2849L105.103 12.5316C105.359 10.6667 107.078 9.36226 108.943 9.61805ZM126.501 12.0265L124.475 11.7486C122.61 11.4928 120.891 12.7972 120.635 14.6621L119.709 21.4155C119.453 23.2803 120.758 24.9995 122.623 25.2553L124.649 25.5332C126.514 25.789 128.233 24.4845 128.489 22.6196L129.415 15.8663C129.671 14.0014 128.366 12.2822 126.501 12.0265ZM140.008 13.8789L142.034 14.1568C143.899 14.4126 145.203 16.1317 144.948 17.9966L144.021 24.75C143.765 26.6149 142.046 27.9193 140.181 27.6635L138.155 27.3856C136.291 27.1298 134.986 25.4107 135.242 23.5458L136.168 16.7924C136.424 14.9276 138.143 13.6231 140.008 13.8789Z" fill="#FFA000"/>
<path fill-rule="evenodd" clip-rule="evenodd" d="M55.6267 31.7894L57.4165 66.0956C57.5226 68.1298 59.3776 69.6173 61.3862 69.279L67.4547 68.2569L71.6639 129.484C70.0379 130.997 68.9736 133.091 68.7831 135.407L86.9628 135.362C86.6737 132.081 84.6733 129.346 81.9062 127.98L77.682 66.5344L86.1823 65.1027C88.2057 64.7619 89.4714 62.7236 88.8798 60.759L74.1022 11.6866C73.2569 8.87963 69.4972 8.37865 67.9464 10.8664L56.138 29.8088C55.7688 30.4011 55.5903 31.0924 55.6267 31.7894Z" fill="#00A65A"/>
<path d="M25.1657 135.354H58.2261L52.7728 76.0494C52.8866 70.2043 45.3996 64.5614 41.8663 66.1654C43.5182 53.0652 41.6505 48.2631 27.2107 49.8056C26.8889 42.0493 25.5656 38.5156 20.0533 34.4683L15.6225 40.2624C17.9674 44.7422 18.1246 47.3879 17.6674 52.1914C3.46881 57.3249 3.27302 62.4184 10.51 73.6636C5.47574 79.1689 4.96854 82.9167 6.76091 90.3642L25.1657 135.354Z" fill="#FFA000"/>
<path d="M157.178 135.354H133.961L137.791 93.6804C137.711 89.573 142.968 85.6077 145.45 86.7348C144.29 77.5293 145.601 74.1548 155.742 75.2388C155.968 69.7884 156.897 67.3053 160.768 64.4612L163.879 68.5327C162.233 71.6807 162.122 73.5399 162.443 76.9153C172.414 80.5226 172.552 84.1018 167.47 92.0039C171.005 95.8724 171.361 98.5061 170.102 103.739L157.178 135.354Z" fill="#00A65A"/>
</svg>
