<svg width="52" height="48" viewBox="0 0 52 48" fill="none" xmlns="http://www.w3.org/2000/svg">
<path d="M26.0001 23.95C23.6167 23.95 21.6667 23.25 20.1501 21.85C18.6334 20.45 17.8751 18.65 17.8751 16.45C17.8751 14.25 18.6334 12.45 20.1501 11.05C21.6667 9.64995 23.6167 8.94995 26.0001 8.94995C28.3834 8.94995 30.3334 9.64995 31.8501 11.05C33.3667 12.45 34.1251 14.25 34.1251 16.45C34.1251 18.65 33.3667 20.45 31.8501 21.85C30.3334 23.25 28.3834 23.95 26.0001 23.95ZM8.66675 40V35.2999C8.66675 34.0333 9.0098 32.9499 9.69591 32.0499C10.382 31.15 11.2667 30.4666 12.3501 30C14.7695 29 17.0897 28.25 19.3105 27.75C21.5313 27.25 23.7612 27 26.0001 27C28.239 27 30.4598 27.2583 32.6626 27.775C34.8654 28.2916 37.1765 29.0333 39.5959 30C40.7154 30.4666 41.6181 31.15 42.3042 32.0499C42.9904 32.9499 43.3334 34.0333 43.3334 35.2999V40H8.66675ZM11.9167 37H40.0834V35.2999C40.0834 34.7666 39.9119 34.2583 39.5688 33.775C39.2258 33.2916 38.8015 32.9333 38.2959 32.7C35.9848 31.6666 33.8723 30.9583 31.9584 30.575C30.0445 30.1916 28.0584 30 26.0001 30C23.9417 30 21.9376 30.1916 19.9876 30.575C18.0376 30.9583 15.9251 31.6666 13.6501 32.7C13.1445 32.9333 12.7292 33.2916 12.4042 33.775C12.0792 34.2583 11.9167 34.7666 11.9167 35.2999V37ZM26.0001 20.95C27.4084 20.95 28.573 20.525 29.4938 19.675C30.4147 18.825 30.8751 17.75 30.8751 16.45C30.8751 15.15 30.4147 14.075 29.4938 13.225C28.573 12.375 27.4084 11.95 26.0001 11.95C24.5917 11.95 23.4272 12.375 22.5063 13.225C21.5855 14.075 21.1251 15.15 21.1251 16.45C21.1251 17.75 21.5855 18.825 22.5063 19.675C23.4272 20.525 24.5917 20.95 26.0001 20.95Z" fill="#333333"/>
</svg>
