<svg width="51" height="48" viewBox="0 0 51 48" fill="none" xmlns="http://www.w3.org/2000/svg">
<path d="M33.3094 33.65L35.7 31.4L27.2531 23.4V13.35H24.0656V24.6L33.3094 33.65ZM25.5 44C22.5958 44 19.851 43.475 17.2656 42.425C14.6802 41.375 12.4224 39.9417 10.4922 38.125C8.56198 36.3083 7.03906 34.1833 5.92344 31.75C4.80781 29.3167 4.25 26.7333 4.25 24C4.25 21.2667 4.80781 18.6833 5.92344 16.25C7.03906 13.8167 8.56198 11.6917 10.4922 9.875C12.4224 8.05833 14.6802 6.625 17.2656 5.575C19.851 4.525 22.5958 4 25.5 4C28.4042 4 31.149 4.525 33.7344 5.575C36.3198 6.625 38.5776 8.05833 40.5078 9.875C42.438 11.6917 43.9609 13.8167 45.0766 16.25C46.1922 18.6833 46.75 21.2667 46.75 24C46.75 26.7333 46.1922 29.3167 45.0766 31.75C43.9609 34.1833 42.438 36.3083 40.5078 38.125C38.5776 39.9417 36.3198 41.375 33.7344 42.425C31.149 43.475 28.4042 44 25.5 44ZM25.5 41C30.4583 41 34.7083 39.3333 38.25 36C41.7917 32.6667 43.5625 28.6667 43.5625 24C43.5625 19.3333 41.7917 15.3333 38.25 12C34.7083 8.66667 30.4583 7 25.5 7C20.5417 7 16.2917 8.66667 12.75 12C9.20833 15.3333 7.4375 19.3333 7.4375 24C7.4375 28.6667 9.20833 32.6667 12.75 36C16.2917 39.3333 20.5417 41 25.5 41Z" fill="#333333"/>
</svg>
