<svg width="51" height="48" viewBox="0 0 51 48" fill="none" xmlns="http://www.w3.org/2000/svg">
<path d="M25.5 44C22.5604 44 19.7979 43.475 17.2125 42.425C14.6271 41.375 12.3781 39.95 10.4656 38.15C8.55313 36.35 7.03906 34.2333 5.92344 31.8C4.80781 29.3667 4.25 26.7667 4.25 24C4.25 21.2333 4.80781 18.6333 5.92344 16.2C7.03906 13.7667 8.55313 11.65 10.4656 9.85C12.3781 8.05 14.6271 6.625 17.2125 5.575C19.7979 4.525 22.5604 4 25.5 4C28.4396 4 31.2021 4.525 33.7875 5.575C36.3729 6.625 38.6219 8.05 40.5344 9.85C42.4469 11.65 43.9609 13.7667 45.0766 16.2C46.1922 18.6333 46.75 21.2333 46.75 24C46.75 26.7667 46.1922 29.3667 45.0766 31.8C43.9609 34.2333 42.4469 36.35 40.5344 38.15C38.6219 39.95 36.3729 41.375 33.7875 42.425C31.2021 43.475 28.4396 44 25.5 44ZM23.2156 40.95V36.85C21.976 36.85 20.9312 36.4167 20.0812 35.55C19.2312 34.6833 18.8063 33.6667 18.8063 32.5V30.3L7.91562 20.05C7.73854 20.7167 7.61458 21.375 7.54375 22.025C7.47292 22.675 7.4375 23.3333 7.4375 24C7.4375 28.3333 8.93385 32.1167 11.9266 35.35C14.9193 38.5833 18.6823 40.45 23.2156 40.95ZM38.8344 35.55C39.6135 34.75 40.2953 33.9 40.8797 33C41.4641 32.1 41.9599 31.1583 42.3672 30.175C42.7745 29.1917 43.0755 28.1833 43.2703 27.15C43.4651 26.1167 43.5625 25.0667 43.5625 24C43.5625 20.4667 42.5354 17.2583 40.4812 14.375C38.4271 11.4917 35.6823 9.38333 32.2469 8.05V8.95C32.2469 10.1167 31.8219 11.1333 30.9719 12C30.1219 12.8667 29.0771 13.3 27.8375 13.3H23.2156V17.65C23.2156 18.2167 22.9766 18.6833 22.4984 19.05C22.0203 19.4167 21.4802 19.6 20.8781 19.6H16.4688V24H30.175C30.7771 24 31.2729 24.2167 31.6625 24.65C32.0521 25.0833 32.2469 25.5833 32.2469 26.15V32.5H34.5312C35.5583 32.5 36.4615 32.7833 37.2406 33.35C38.0198 33.9167 38.551 34.65 38.8344 35.55Z" fill="#333333"/>
</svg>
