<svg width="512" height="512" viewBox="0 0 512 512" fill="none" xmlns="http://www.w3.org/2000/svg">
<rect width="512" height="512" rx="80" fill="white"/>
<path fill-rule="evenodd" clip-rule="evenodd" d="M380.83 298.441H129.869V354.609C129.869 354.609 140.559 386.702 154.965 401.813C178.401 426.398 233.212 428.629 249.506 428.734C252.612 428.754 255.68 428.783 258.786 428.823C275.517 429.038 333.096 427.808 356.928 401.813C370.893 386.583 380.83 354.609 380.83 354.609V298.441ZM231.448 357.596C231.448 366.507 224.225 373.73 215.315 373.73C206.405 373.73 199.182 366.507 199.182 357.596C199.182 348.686 206.405 341.463 215.315 341.463C224.225 341.463 231.448 348.686 231.448 357.596ZM296.578 373.73C305.488 373.73 312.712 366.507 312.712 357.596C312.712 348.686 305.488 341.463 296.578 341.463C287.668 341.463 280.445 348.686 280.445 357.596C280.445 366.507 287.668 373.73 296.578 373.73Z" fill="#00A65A"/>
<path d="M112.54 352.219V298.441C112.54 298.441 90.1181 313.151 91.0292 327.123C91.8693 340.004 112.54 352.219 112.54 352.219Z" fill="#00A65A"/>
<path d="M398.755 352.219V298.441C398.755 298.441 421.178 313.151 420.266 327.123C419.426 340.004 398.755 352.219 398.755 352.219Z" fill="#00A65A"/>
<path d="M205.754 463.498V440.792H181.256C181.256 440.792 175.013 443.558 172.293 446.767C167.939 451.905 168.11 463.498 168.11 463.498H205.754Z" fill="#00A65A"/>
<path d="M300.761 463.498V440.792H325.26C325.26 440.792 331.503 443.558 334.222 446.767C338.576 451.905 338.405 463.498 338.405 463.498H300.761Z" fill="#00A65A"/>
<path fill-rule="evenodd" clip-rule="evenodd" d="M249.957 113.77L258.269 53.164C258.718 49.8946 261.732 47.6077 265.001 48.0561L361.516 61.2941C364.785 61.7425 367.072 64.7565 366.624 68.0259L358.311 128.632C357.862 131.902 354.848 134.189 351.579 133.74L316.631 128.947L298.993 257.539C303.529 262.586 305.897 269.522 304.903 276.772L303.734 285.296H254.69L256.765 270.169C258.005 261.128 264.15 253.965 272.147 250.998L289.399 125.212L255.064 120.502C251.795 120.054 249.508 117.04 249.957 113.77ZM281.996 64.8619L285.548 65.3491C288.817 65.7975 291.104 68.8114 290.656 72.0809L289.032 83.9205C288.583 87.19 285.569 89.4768 282.3 89.0284L278.748 88.5412C275.479 88.0928 273.192 85.0789 273.64 81.8094L275.264 69.9698C275.713 66.7003 278.727 64.4134 281.996 64.8619ZM312.779 69.0842L309.227 68.597C305.958 68.1486 302.944 70.4354 302.495 73.7049L300.871 85.5446C300.423 88.814 302.71 91.8279 305.979 92.2764L309.531 92.7635C312.801 93.212 315.815 90.9251 316.263 87.6557L317.887 75.816C318.335 72.5466 316.049 69.5326 312.779 69.0842ZM336.459 72.3318L340.01 72.819C343.28 73.2675 345.567 76.2814 345.118 79.5508L343.494 91.3905C343.046 94.6599 340.032 96.9468 336.763 96.4984L333.211 96.0112C329.941 95.5627 327.654 92.5488 328.103 89.2794L329.727 77.4397C330.175 74.1703 333.189 71.8834 336.459 72.3318Z" fill="#FFA000"/>
<path fill-rule="evenodd" clip-rule="evenodd" d="M188.524 103.732L191.662 163.876C191.848 167.442 195.1 170.05 198.621 169.457L209.261 167.665L216.64 275.006C213.789 277.659 211.923 281.329 211.589 285.389L243.461 285.31C242.954 279.558 239.447 274.764 234.596 272.369L227.191 164.645L242.093 162.135C245.64 161.538 247.859 157.964 246.822 154.52L220.914 68.4886C219.433 63.5674 212.841 62.6892 210.122 67.0506L189.42 100.26C188.773 101.298 188.46 102.51 188.524 103.732Z" fill="#00A65A"/>
<path d="M135.122 285.296H193.082L183.521 181.326C183.721 171.079 170.595 161.186 164.4 163.998C167.296 141.031 164.022 132.612 138.707 135.317C138.143 121.719 135.823 115.524 126.159 108.428L118.391 118.586C122.502 126.44 122.777 131.078 121.976 139.499C97.0835 148.499 96.7403 157.429 109.428 177.143C100.602 186.795 99.7128 193.366 102.855 206.422L135.122 285.296Z" fill="#FFA000"/>
<path d="M366.56 285.296H325.857L332.571 212.236C332.431 205.035 341.649 198.083 345.998 200.059C343.965 183.921 346.264 178.005 364.042 179.905C364.438 170.35 366.067 165.996 372.854 161.01L378.309 168.148C375.422 173.667 375.228 176.927 375.791 182.844C393.272 189.168 393.513 195.443 384.603 209.297C390.801 216.079 391.425 220.696 389.219 229.871L366.56 285.296Z" fill="#00A65A"/>
</svg>
