<svg width="276" height="348" viewBox="0 0 276 348" fill="none" xmlns="http://www.w3.org/2000/svg">
<path fill-rule="evenodd" clip-rule="evenodd" d="M242.523 209.565H32.5227V256.565C32.5227 256.565 41.468 283.42 53.5227 296.065C73.1341 316.637 118.998 318.504 132.633 318.592C135.232 318.609 137.8 318.633 140.398 318.666C154.399 318.847 202.58 317.817 222.523 296.065C234.208 283.321 242.523 256.565 242.523 256.565V209.565ZM117.523 259.065C117.523 266.521 111.479 272.565 104.023 272.565C96.5669 272.565 90.5227 266.521 90.5227 259.065C90.5227 251.609 96.5669 245.565 104.023 245.565C111.479 245.565 117.523 251.609 117.523 259.065ZM172.023 272.565C179.479 272.565 185.523 266.521 185.523 259.065C185.523 251.609 179.479 245.565 172.023 245.565C164.567 245.565 158.523 251.609 158.523 259.065C158.523 266.521 164.567 272.565 172.023 272.565Z" fill="#00A65A"/>
<path d="M18.0226 254.565V209.565C18.0226 209.565 -0.739826 221.874 0.0226238 233.565C0.725568 244.344 18.0226 254.565 18.0226 254.565Z" fill="#00A65A"/>
<path d="M257.523 254.565V209.565C257.523 209.565 276.285 221.874 275.523 233.565C274.82 244.344 257.523 254.565 257.523 254.565Z" fill="#00A65A"/>
<path d="M96.0227 347.682V328.682H75.5227C75.5227 328.682 70.2985 330.996 68.0227 333.682C64.3794 337.981 64.5227 347.682 64.5227 347.682H96.0227Z" fill="#00A65A"/>
<path d="M175.523 347.682V328.682H196.023C196.023 328.682 201.247 330.996 203.523 333.682C207.166 337.981 207.023 347.682 207.023 347.682H175.523Z" fill="#00A65A"/>
<path fill-rule="evenodd" clip-rule="evenodd" d="M133.01 55.0356L139.966 4.32116C140.342 1.58535 142.864 -0.328264 145.599 0.0469807L226.361 11.1243C229.097 11.4995 231.011 14.0215 230.635 16.7573L223.679 67.4718C223.304 70.2076 220.782 72.1212 218.046 71.746L188.802 67.7349L174.043 175.339C177.839 179.562 179.82 185.366 178.988 191.433L178.01 198.565H136.971L138.707 185.908C139.745 178.342 144.887 172.348 151.579 169.865L166.015 64.6094L137.285 60.6687C134.549 60.2934 132.635 57.7714 133.01 55.0356ZM159.82 14.1097L162.793 14.5174C165.528 14.8926 167.442 17.4146 167.067 20.1504L165.708 30.0577C165.333 32.7935 162.811 34.7071 160.075 34.3319L157.103 33.9242C154.367 33.549 152.453 31.027 152.828 28.2911L154.187 18.3839C154.563 15.6481 157.085 13.7345 159.82 14.1097ZM185.579 17.6428L182.607 17.2351C179.871 16.8599 177.349 18.7735 176.974 21.5093L175.615 31.4166C175.24 34.1524 177.154 36.6744 179.889 37.0496L182.862 37.4573C185.597 37.8325 188.119 35.9189 188.495 33.1831L189.853 23.2759C190.229 20.5401 188.315 18.0181 185.579 17.6428ZM205.394 20.3606L208.366 20.7682C211.102 21.1435 213.015 23.6655 212.64 26.4013L211.281 36.3085C210.906 39.0443 208.384 40.958 205.648 40.5827L202.676 40.1751C199.94 39.7998 198.027 37.2778 198.402 34.542L199.761 24.6348C200.136 21.8989 202.658 19.9853 205.394 20.3606Z" fill="#FFA000"/>
<path fill-rule="evenodd" clip-rule="evenodd" d="M81.6046 46.6355L84.2303 96.9631C84.386 99.9472 87.1073 102.129 90.054 101.633L98.9566 100.134L105.132 189.955C102.746 192.175 101.185 195.246 100.905 198.643L127.575 198.577C127.151 193.764 124.216 189.752 120.157 187.748L113.96 97.6067L126.43 95.5064C129.398 95.0065 131.255 92.0163 130.387 89.1341L108.708 17.1445C107.468 13.0266 101.953 12.2916 99.6778 15.9412L82.3548 43.7299C81.8131 44.5988 81.5513 45.613 81.6046 46.6355Z" fill="#00A65A"/>
<path d="M36.9183 198.565H85.4183L77.4183 111.565C77.5853 102.99 66.6017 94.7122 61.4183 97.0652C63.8417 77.847 61.1017 70.8023 39.9183 73.0652C39.4463 61.6866 37.505 56.5027 29.4183 50.5652L22.9183 59.0652C26.3583 65.6372 26.5889 69.5185 25.9183 76.5652C5.08879 84.0961 4.80156 91.5683 15.4183 108.065C8.03297 116.141 7.28891 121.64 9.91833 132.565L36.9183 198.565Z" fill="#FFA000"/>
<path d="M230.582 198.565H196.523L202.141 137.43C202.023 131.404 209.737 125.587 213.377 127.241C211.675 113.736 213.599 108.786 228.475 110.376C228.807 102.38 230.17 98.7375 235.849 94.5652L240.413 100.538C237.998 105.156 237.836 107.884 238.307 112.835C252.934 118.127 253.136 123.378 245.68 134.971C250.867 140.646 251.389 144.509 249.543 152.187L230.582 198.565Z" fill="#00A65A"/>
</svg>
